<?xml version="1.0" encoding="UTF-8" standalone="no"?>
<!-- Created with Inkscape (http://www.inkscape.org/) -->

<svg
   width="210mm"
   height="297mm"
   viewBox="0 0 210 297"
   version="1.1"
   id="svg1"
   inkscape:version="1.4 (86a8ad7, 2024-10-11)"
   sodipodi:docname="LOGO_TIENDA_STEFI_COINS.svg"
   xmlns:inkscape="http://www.inkscape.org/namespaces/inkscape"
   xmlns:sodipodi="http://sodipodi.sourceforge.net/DTD/sodipodi-0.dtd"
   xmlns="http://www.w3.org/2000/svg"
   xmlns:svg="http://www.w3.org/2000/svg">
  <sodipodi:namedview
     id="namedview1"
     pagecolor="#ffffff"
     bordercolor="#000000"
     borderopacity="0.25"
     inkscape:showpageshadow="2"
     inkscape:pageopacity="0.0"
     inkscape:pagecheckerboard="0"
     inkscape:deskcolor="#d1d1d1"
     inkscape:document-units="mm"
     inkscape:zoom="0.34835028"
     inkscape:cx="5.7413475"
     inkscape:cy="394.71764"
     inkscape:window-width="1366"
     inkscape:window-height="705"
     inkscape:window-x="-8"
     inkscape:window-y="-8"
     inkscape:window-maximized="1"
     inkscape:current-layer="layer1" />
  <defs
     id="defs1" />
  <path
     style="fill:#7f4300;fill-opacity:1;stroke:#000000;stroke-width:0;stroke-dasharray:none;stroke-opacity:0"
     d="m 49.777327,138.3843 c 0,-31.61152 0.02668,-32.65989 0.831241,-32.65989 0.457183,0 3.606407,1.26456 6.998273,2.81015 l 6.167035,2.81016 0.114205,29.84973 0.114216,29.84975 h -7.112484 -7.112486 z"
     id="path14" />
  <path
     style="fill:#7f4300;fill-opacity:1;stroke:#000000;stroke-width:0;stroke-dasharray:none;stroke-opacity:0"
     d="m 146.97018,142.56258 v -28.48161 l 7.00352,-2.84911 c 3.85195,-1.56699 7.56876,-2.84909 8.25959,-2.84909 h 1.25606 v 31.33072 31.33071 h -8.25959 -8.25958 z"
     id="path15" />
  <path
     id="rect1-4"
     style="fill:#5a2f00;fill-opacity:1;stroke:#000000;stroke-width:0.851324;stroke-opacity:0"
     d="m 63.897841,119.62 h 83.004279 l 13.56012,-5.94206 H 50.748648 Z"
     sodipodi:nodetypes="ccccc" />
  <rect
     style="fill:#693700;fill-opacity:1;stroke:#000000;stroke-width:0;stroke-dasharray:none;stroke-opacity:1"
     id="rect13"
     width="83.782997"
     height="88.079559"
     x="63.350613"
     y="118.69258" />
  <path
     style="fill:#ff0000;stroke:#ff0909;stroke-width:0;stroke-dasharray:none;stroke-opacity:1"
     d="m 158.89404,114.05323 c 0,-0.0871 -2.9239,-14.369098 -6.49757,-31.73763 -3.57368,-17.368532 -6.49758,-31.650469 -6.49758,-31.73764 0,-0.08717 3.45553,-0.15849 7.67896,-0.15849 4.22342,0 7.67895,0.133471 7.67895,0.296601 0,0.281996 17.33499,60.258579 18.04999,62.450419 0.32081,0.98344 -0.27257,1.04524 -10.03588,1.04524 -5.70727,0 -10.37687,-0.0713 -10.37687,-0.1585 z"
     id="path5" />
  <g
     inkscape:label="Capa 1"
     inkscape:groupmode="layer"
     id="layer1">
    <path
       id="rect1"
       style="fill:#ffff00;stroke:#000000;stroke-width:3.165;fill-opacity:0"
       d="M 53.707055,49.947563 H 162.19531 l 17.72333,62.837247 H 36.520798 Z"
       sodipodi:nodetypes="ccccc" />
    <path
       style="fill:#de0000;fill-opacity:1;stroke:#ff0909;stroke-width:0;stroke-dasharray:none;stroke-opacity:1"
       d="m 56.886858,111.16867 c 0.18326,-0.83819 3.056615,-14.678762 6.385234,-30.756823 l 6.05204,-29.232844 h 18.124197 18.124191 v 30.75683 30.756827 H 81.063092 56.553661 Z"
       id="path6" />
    <path
       id="rect1-8"
       style="fill:none;stroke:#000000;stroke-width:2.68389"
       d="M 67.431678,49.454929 H 144.76022 L 157.3931,112.84813 H 55.181614 Z"
       sodipodi:nodetypes="ccccc" />
    <path
       id="rect1-8-5"
       style="fill:none;stroke:#000000;stroke-width:2.63602"
       d="M 69.019376,49.734199 H 143.5521 l 12.1761,63.446241 H 57.21225 Z"
       sodipodi:nodetypes="ccccc" />
    <rect
       style="fill:none;stroke:#000000;stroke-width:2.98341"
       id="rect3"
       width="1.2557313"
       height="62.454784"
       x="103.54011"
       y="49.856754" />
    <rect
       style="fill:none;stroke:#000000;stroke-width:3.26594"
       id="rect3-1"
       width="0.97320163"
       height="96.571754"
       x="48.459675"
       y="112.1543" />
    <rect
       style="fill:none;stroke:#000000;stroke-width:3.26594"
       id="rect3-1-7"
       width="0.97320163"
       height="96.571754"
       x="162.78085"
       y="113.3063" />
    <path
       style="fill:#ffffff;stroke:#ff0909;stroke-width:0;stroke-dasharray:none;stroke-opacity:1"
       d="m 402.92976,307.49837 v -112.6853 l 67.46848,0.53483 67.46848,0.53483 11.7271,60.89619 c 6.44991,33.4929 16.1312,83.96061 21.51399,112.15047 l 9.78687,51.25429 h -88.98246 -88.98246 z"
       id="path7"
       transform="scale(0.26458333)" />
    <path
       style="fill:#e0e0e0;stroke:#ffffff;stroke-width:0;stroke-dasharray:none;stroke-opacity:1;fill-opacity:1"
       d="m 147.63627,417.64634 c 0.49765,-1.39554 14.45292,-52.09161 31.0117,-112.65794 l 30.10688,-110.12061 h 18.93735 c 10.41554,0 18.93735,0.55247 18.93735,1.22771 0,0.67524 -9.59115,50.75437 -21.31366,111.28697 -11.72252,60.5326 -21.31367,110.67622 -21.31367,111.43023 0,0.75404 -12.88593,1.37098 -28.63539,1.37098 -22.03765,0 -28.42692,-0.58462 -27.73056,-2.53734 z"
       id="path8"
       transform="scale(0.26458333)" />
    <rect
       style="fill:#ff9b31;fill-opacity:1;stroke:#000000;stroke-width:4.26771;stroke-dasharray:none;stroke-opacity:1"
       id="rect8"
       width="136.84821"
       height="68.640259"
       x="38.634705"
       y="172.72057" />
    <rect
       style="fill:none;stroke:#000000;stroke-width:3.03891"
       id="rect3-1-2"
       width="1.2002268"
       height="67.796974"
       x="54.266388"
       y="173.99321" />
    <rect
       style="fill:none;stroke:#000000;stroke-width:3.03891"
       id="rect3-1-2-1"
       width="1.2002268"
       height="67.796974"
       x="86.450737"
       y="173.76305" />
    <rect
       style="fill:none;stroke:#000000;stroke-width:3.03891"
       id="rect3-1-2-7"
       width="1.2002268"
       height="67.796974"
       x="118.46532"
       y="173.46404" />
    <rect
       style="fill:none;stroke:#000000;stroke-width:3.03891"
       id="rect3-1-2-1-6"
       width="1.2002268"
       height="67.796974"
       x="150.64934"
       y="173.23387" />
    <path
       style="fill:#ee7b00;fill-opacity:1;stroke:#000000;stroke-width:0;stroke-dasharray:none;stroke-opacity:1"
       d="M 155.28527,782.51598 V 661.73855 h 21.31367 21.31366 v 120.77743 120.77744 h -21.31366 -21.31367 z"
       id="path9"
       transform="scale(0.26458333)" />
    <path
       style="fill:#d66f00;fill-opacity:1;stroke:#000000;stroke-width:0;stroke-dasharray:none;stroke-opacity:1"
       d="M 216.18146,782.51598 V 661.73855 h 51.76176 51.76175 v 120.77743 120.77744 h -51.76175 -51.76176 z"
       id="path10"
       transform="scale(0.26458333)" />
    <path
       style="fill:#c96800;fill-opacity:1;stroke:#000000;stroke-width:0;stroke-dasharray:none;stroke-opacity:1"
       d="M 155.28527,782.51598 V 661.73855 h 21.31367 21.31366 v 120.77743 120.77744 h -21.31366 -21.31367 z"
       id="path11"
       transform="scale(0.26458333)" />
    <path
       style="fill:#ea7a00;fill-opacity:1;stroke:#000000;stroke-width:0;stroke-dasharray:none;stroke-opacity:1"
       d="M 337.97383,782.51598 V 661.73855 h 51.76176 51.76175 v 120.77743 120.77744 h -51.76175 -51.76176 z"
       id="path12"
       transform="scale(0.26458333)" />
    <path
       style="fill:#ea7a00;fill-opacity:1;stroke:#000000;stroke-width:0;stroke-dasharray:none;stroke-opacity:1"
       d="M 459.7662,782.51598 V 661.73855 h 51.76176 51.76176 V 782.51598 903.29342 H 511.52796 459.7662 Z"
       id="path13"
       transform="scale(0.26458333)" />
    <rect
       style="fill:#7f4300;fill-opacity:1;stroke:#000000;stroke-width:3.9;stroke-dasharray:none;stroke-opacity:1"
       id="rect15"
       width="89.624825"
       height="52.407738"
       x="61.522125"
       y="167.09714"
       ry="15.950181" />
    <text
       xml:space="preserve"
       style="font-size:38.8056px;font-family:Onyx;-inkscape-font-specification:Onyx;text-align:start;writing-mode:lr-tb;direction:ltr;text-anchor:start;fill:#000000;fill-opacity:1;stroke:#000000;stroke-width:0;stroke-dasharray:none;stroke-opacity:0"
       x="80.510437"
       y="206.59282"
       id="text15"><tspan
         sodipodi:role="line"
         id="tspan15"
         style="fill:#000000;fill-opacity:1;stroke-width:0"
         x="80.510437"
         y="206.59282">SHOP</tspan></text>
  </g>
</svg>
