<?xml version="1.0" encoding="UTF-8" standalone="no"?>
<!-- Created with Inkscape (http://www.inkscape.org/) -->

<svg
   width="177mm"
   height="195mm"
   viewBox="0 0 177 195"
   version="1.1"
   id="svg1"
   inkscape:version="1.4 (86a8ad7, 2024-10-11)"
   sodipodi:docname="task_esteficoins.svg"
   xmlns:inkscape="http://www.inkscape.org/namespaces/inkscape"
   xmlns:sodipodi="http://sodipodi.sourceforge.net/DTD/sodipodi-0.dtd"
   xmlns="http://www.w3.org/2000/svg"
   xmlns:svg="http://www.w3.org/2000/svg">
  <sodipodi:namedview
     id="namedview1"
     pagecolor="#ffffff"
     bordercolor="#000000"
     borderopacity="0.25"
     inkscape:showpageshadow="2"
     inkscape:pageopacity="0.0"
     inkscape:pagecheckerboard="0"
     inkscape:deskcolor="#d1d1d1"
     inkscape:document-units="mm"
     inkscape:zoom="0.69670057"
     inkscape:cx="326.53913"
     inkscape:cy="536.09831"
     inkscape:window-width="1366"
     inkscape:window-height="705"
     inkscape:window-x="-8"
     inkscape:window-y="-8"
     inkscape:window-maximized="1"
     inkscape:current-layer="layer1">
    <sodipodi:guide
       position="0,195.99984"
       orientation="0,793.70079"
       id="guide1"
       inkscape:locked="false" />
    <sodipodi:guide
       position="209.99977,195.99984"
       orientation="1122.5197,0"
       id="guide2"
       inkscape:locked="false" />
    <sodipodi:guide
       position="209.99983,-100.99999"
       orientation="0,-793.70079"
       id="guide3"
       inkscape:locked="false" />
    <sodipodi:guide
       position="0,-100.99999"
       orientation="-1122.5197,0"
       id="guide4"
       inkscape:locked="false" />
  </sodipodi:namedview>
  <defs
     id="defs1" />
  <rect
     style="fill:#000000;stroke:#000000;stroke-width:3.54013"
     id="rect1-3"
     width="69.871506"
     height="86.272324"
     x="131.77608"
     y="21.319382"
     ry="7.3207822"
     transform="matrix(0.85775412,0.51406018,-0.94906395,0.3150835,0,0)" />
  <g
     inkscape:label="Capa 1"
     inkscape:groupmode="layer"
     id="layer1">
    <rect
       style="fill:#ffff00;stroke:#000000;stroke-width:3.53235;stroke-opacity:0"
       id="rect1"
       width="71.80732"
       height="83.578102"
       x="99.866508"
       y="6.0838113"
       ry="7.0921593"
       transform="matrix(0.84075115,0.54142174,-0.85207722,0.5234161,0,0)" />
    <text
       xml:space="preserve"
       style="font-size:35.8456px;font-family:Onyx;-inkscape-font-specification:Onyx;text-align:start;writing-mode:lr-tb;direction:ltr;text-anchor:start;fill:#000000;fill-opacity:1;stroke:#000000;stroke-width:4.34151;stroke-dasharray:none;stroke-opacity:0"
       x="94.94931"
       y="32.277092"
       id="text9"
       transform="matrix(0.85082291,0.60661419,-0.77444076,0.62317697,0,0)"><tspan
         sodipodi:role="line"
         id="tspan9"
         style="stroke-width:4.3415"
         x="94.94931"
         y="32.277092">tareas</tspan></text>
  </g>
  <ellipse
     style="fill:#800000;stroke:#000000;stroke-width:4.33314;stroke-dasharray:none;stroke-opacity:0"
     id="path6"
     cx="150.08858"
     cy="-49.30933"
     rx="11.149187"
     ry="7.9686451"
     transform="rotate(32.195581)" />
  <rect
     style="fill:#ffff00;stroke:#000000;stroke-width:4.2;stroke-opacity:0"
     id="rect4"
     width="22.556963"
     height="63.374321"
     x="138.69276"
     y="-52.390518"
     ry="8.4311924"
     transform="rotate(32.195581)" />
  <path
     style="fill:#ff7f2a;stroke:#000000;stroke-width:1.5071;stroke-opacity:0"
     d="m 116.14743,95.659206 c -0.0653,-0.27253 -0.29736,-3.0818 -0.51561,-6.24282 -0.2421,-3.50647 -0.48342,-6.1736 -0.61893,-6.84075 -0.12215,-0.60141 -0.23191,-1.33899 -0.24391,-1.63906 -0.0323,-0.80765 0.14916,-2.17009 0.40334,-3.02873 l 0.22395,-0.75654 7.55204,-12.04587 7.55205,-12.045894 9.52288,5.995844 9.52288,5.99582 -7.40421,11.75962 c -8.22234,13.05902 -7.74141,12.35734 -9.35667,13.65142 l -0.86703,0.69463 -7.19413,2.64433 c -3.95677,1.45438 -7.34138,2.66496 -7.52135,2.69018 -0.52673,0.0738 -0.9107,-0.22899 -1.0553,-0.83218 z"
     id="path5" />
  <path
     style="fill:#ffff00;stroke:#000000;stroke-width:1.68652;stroke-dasharray:none;stroke-opacity:0"
     d="m 132.86394,89.815366 c 1.66884,-3.51833 1.10375,-7.61921 -1.48549,-10.78037 -0.73629,-0.89892 -1.575,-1.61971 -2.7333,-2.349 -2.48562,-1.565 -5.10177,-2.08838 -7.945,-1.58942 -1.62383,0.28497 -3.66227,1.35187 -4.91978,2.57499 l -0.66391,0.64575 0.14451,-0.52958 c 0.13213,-0.4842 0.79338,-1.56552 7.7143,-12.61482 l 7.56978,-12.085251 9.51276,5.989481 9.51276,5.98945 -7.35401,11.55349 c -4.04471,6.35444 -7.5964,11.8641 -7.89265,12.2437 -0.29625,0.37961 -0.8376,0.94226 -1.203,1.25032 l -0.66436,0.56012 z"
     id="path7" />
  <path
     style="fill:#000000;stroke:#000000;stroke-width:1.68652;stroke-dasharray:none;stroke-opacity:0"
     d="m 116.37342,96.033766 c -0.12424,-0.20137 -0.23873,-0.94907 -0.35539,-2.32101 -0.0947,-1.11318 -0.15872,-2.027 -0.14235,-2.03072 0.0164,-0.004 0.3184,0.25375 0.67116,0.57217 0.91108,0.82237 2.9674,2.02313 4.04356,2.36118 0.42894,0.13474 0.7849,0.26702 0.79102,0.29394 0.0148,0.0652 -3.76343,1.41262 -4.14548,1.47844 -0.43156,0.0743 -0.65476,-0.0173 -0.86252,-0.354 z"
     id="path8" />
  <path
     style="fill:#b3b3b3;stroke:#000000;stroke-width:6.74608;stroke-dasharray:none;stroke-opacity:0"
     d="m 139.97571,38.646703 c 2.68058,-4.260406 3.4865,-5.001025 6.24225,-5.737134 2.81639,-0.752309 4.16804,-0.364787 8.68488,2.489976 4.73668,2.993679 5.82414,4.260854 6.20461,7.229808 0.3187,2.486886 -0.24124,4.175521 -2.65659,8.011701 l -2.07904,3.302012 -0.36254,-2.248383 c -0.48881,-3.031504 -2.11581,-5.364229 -5.33721,-7.652261 -4.07188,-2.892096 -8.65594,-3.693128 -11.90151,-2.079709 l -1.2824,0.6375 z"
     id="path9" />
</svg>
